<?xml version="1.0" encoding="utf-8"?>
<!-- Generator: Adobe Illustrator 24.0.3, SVG Export Plug-In . SVG Version: 6.00 Build 0)  -->
<svg version="1.1" id="Layer_1" xmlns="http://www.w3.org/2000/svg" xmlns:xlink="http://www.w3.org/1999/xlink" x="0px" y="0px"
	 viewBox="0 0 650.3 397.1" style="enable-background:new 0 0 650.3 397.1;" xml:space="preserve">
<style type="text/css">
	.st0{fill-rule:evenodd;clip-rule:evenodd;}
	.st1{fill-rule:evenodd;clip-rule:evenodd;fill:#FFFFFF;}
</style>
<g>
	<polygon points="0,121.7 650.3,121.7 650.3,275.1 0,275.1 0,121.7 	"/>
	<path d="M325.1,198.4"/>
</g>
<g>
	<path class="st0" d="M97.3,366.6c0,6.4-1.7,11.8-5.1,16.5c-3.3,4.6-7.9,8.1-13.6,10.5c-5.7,2.4-12,3.5-18.9,3.5c-8,0-15.1-1-21-2.9
		c-6-1.9-11.2-5.2-15.9-9.9L38.2,369c2.4,2.4,5.6,4.2,9.5,5.3c3.9,1.1,8,1.6,12.2,1.6c9.3,0,13.9-2.9,13.9-8.7
		c0-2.5-0.6-4.4-1.9-5.7c-1.3-1.3-3.4-2.2-6.4-2.6l-11.7-1.7c-8.6-1.2-15.1-4.1-19.5-8.6c-4.4-4.6-6.7-11.1-6.7-19.5
		c0-5.9,1.4-11.2,4.3-15.8c2.9-4.7,7-8.3,12.3-10.9c5.4-2.6,11.7-3.9,18.9-3.9c7.2,0,13.4,0.9,18.7,2.8c5.4,1.8,10.1,4.8,14.1,8.8
		l-15,15c-2.5-2.5-5.2-4.1-8.1-4.7c-2.9-0.7-6.4-1-10.4-1c-3.8,0-6.7,0.9-8.7,2.7c-2,1.8-3,3.9-3,6.3c0,1.7,0.6,3.2,1.9,4.5
		c1.5,1.5,3.7,2.5,6.7,2.9l11.7,1.6c8.5,1.2,14.9,3.9,19.1,8.1c2.5,2.4,4.4,5.4,5.5,8.9C96.7,357.6,97.3,361.8,97.3,366.6z"/>
	<path class="st0" d="M170.1,386.3c-3.6,3.6-7.5,6.3-11.7,8.1c-4.1,1.8-9.2,2.7-15.3,2.7c-10.8,0-19.8-3.6-27-10.9
		c-4.3-4.3-7-9.1-8.1-14.5c-1.2-5.4-1.7-12.3-1.7-20.7v-3.3v-3.3c0-8.4,0.6-15.2,1.7-20.7c1.2-5.5,3.9-10.3,8.1-14.6
		c3.6-3.6,7.6-6.4,12-8.1c4.4-1.8,9.4-2.7,15-2.7c6,0,11.2,0.9,15.3,2.7c4.2,1.8,8.1,4.5,11.6,8l-15.9,15.9c-1.8-1.9-3.4-3.2-5-4.1
		c-1.5-0.8-3.5-1.3-6.1-1.3c-4,0-7.1,1.4-9.3,4.1c-0.8,1.1-1.5,2.4-2.1,3.9c-0.5,1.5-0.9,3.7-1.2,6.8c-0.3,3-0.4,7.5-0.4,13.4
		c0,7.9,0.3,13.4,0.9,16.6c0.6,3.2,1.5,5.6,2.8,7.4c2.1,2.8,5.2,4.1,9.3,4.1c2.5,0,4.5-0.4,6-1.3c1.5-0.8,3.2-2.2,5.1-4.1
		L170.1,386.3z"/>
	<polygon class="st0" points="250,396.3 226.1,396.3 226.1,357.8 200.7,357.8 200.7,396.3 176.8,396.3 176.8,299.1 200.7,299.1 
		200.7,336.5 226.1,336.5 226.1,299.1 250,299.1 	"/>
	<path class="st0" d="M335.1,347.7v3.3c0,5.4-0.2,10.1-0.6,14c-0.4,3.9-1.2,7.7-2.7,11.3c-1.4,3.6-3.6,6.9-6.5,9.9
		c-3.6,3.6-7.6,6.3-11.9,8.2c-4.3,1.8-9.4,2.7-15.3,2.7c-4,0-7.5-0.4-10.7-1.2c-3.2-0.8-6.1-2.1-8.8-3.7c-2.7-1.6-5.2-3.6-7.6-6.1
		c-4.3-4.3-7-9.1-8.1-14.5c-1.2-5.4-1.7-12.3-1.7-20.7v-3.3v-3.3c0-8.4,0.6-15.2,1.7-20.7c1.2-5.5,3.9-10.3,8.1-14.6
		c3.7-3.7,7.7-6.4,11.9-8.2c4.3-1.8,9.4-2.7,15.2-2.7c5.9,0,11,0.9,15.3,2.7c4.3,1.8,8.3,4.5,11.9,8.1c2.9,2.9,5.1,6.2,6.5,9.9
		c1.4,3.6,2.3,7.4,2.7,11.3c0.4,3.9,0.6,8.6,0.6,14V347.7z M311.3,347.7c0-8.3-0.3-13.9-0.9-16.9c-0.5-3-1.4-5.3-2.7-6.9
		c-0.9-1.2-2.2-2.3-3.9-3.1c-1.7-0.8-3.6-1.2-5.7-1.2c-2,0-3.9,0.4-5.5,1.2c-1.6,0.8-3,1.8-4,3.1c-0.8,1-1.5,2.3-2,3.8
		c-0.5,1.5-0.9,3.8-1.1,6.9c-0.3,3.1-0.4,7.5-0.4,13.2c0,5.7,0.1,10.1,0.4,13.2c0.3,3.1,0.6,5.3,1.1,6.8c0.5,1.5,1.2,2.7,2,3.7
		c2.3,2.9,5.4,4.4,9.5,4.4c4.1,0,7.3-1.5,9.6-4.4c1.2-1.7,2.1-4,2.7-6.9C311,361.6,311.3,356,311.3,347.7z"/>
	<path class="st0" d="M421,347.7v3.3c0,5.4-0.2,10.1-0.6,14c-0.4,3.9-1.2,7.7-2.7,11.3c-1.4,3.6-3.6,6.9-6.5,9.9
		c-3.6,3.6-7.6,6.3-11.9,8.2c-4.3,1.8-9.4,2.7-15.3,2.7c-4,0-7.5-0.4-10.7-1.2c-3.2-0.8-6.1-2.1-8.8-3.7c-2.7-1.6-5.2-3.6-7.6-6.1
		c-4.3-4.3-7-9.1-8.1-14.5c-1.2-5.4-1.7-12.3-1.7-20.7v-3.3v-3.3c0-8.4,0.6-15.2,1.7-20.7c1.2-5.5,3.9-10.3,8.1-14.6
		c3.7-3.7,7.7-6.4,11.9-8.2c4.3-1.8,9.4-2.7,15.2-2.7c5.9,0,11,0.9,15.3,2.7c4.3,1.8,8.3,4.5,11.9,8.1c2.9,2.9,5.1,6.2,6.5,9.9
		c1.4,3.6,2.3,7.4,2.7,11.3c0.4,3.9,0.6,8.6,0.6,14V347.7z M397.1,347.7c0-8.3-0.3-13.9-0.9-16.9c-0.5-3-1.4-5.3-2.7-6.9
		c-0.9-1.2-2.2-2.3-3.9-3.1c-1.7-0.8-3.6-1.2-5.7-1.2c-2,0-3.9,0.4-5.5,1.2c-1.6,0.8-3,1.8-4,3.1c-0.8,1-1.5,2.3-2,3.8
		c-0.5,1.5-0.9,3.8-1.1,6.9c-0.3,3.1-0.4,7.5-0.4,13.2c0,5.7,0.1,10.1,0.4,13.2c0.3,3.1,0.6,5.3,1.1,6.8c0.5,1.5,1.2,2.7,2,3.7
		c2.3,2.9,5.4,4.4,9.5,4.4c4.1,0,7.3-1.5,9.6-4.4c1.2-1.7,2.1-4,2.7-6.9C396.8,361.6,397.1,356,397.1,347.7z"/>
	<polygon class="st0" points="496.8,396.3 432.1,396.3 432.1,299.1 456,299.1 456,375 496.8,375 	"/>
</g>
<g>
	<path class="st1" d="M98.9,218.5c0,4.6-0.8,8.6-2.3,12.2c-1.5,3.6-3.6,6.6-6.3,9c-2.7,2.4-6,4.3-9.7,5.6c-3.8,1.2-7.8,1.9-12,1.9
		H26.2v-97.2h40.3c6.6,0,12.2,1.2,16.9,3.5c4.7,2.3,8.2,5.6,10.5,9.9c2.4,4.2,3.6,9.1,3.6,14.7c0,4.7-1.2,8.7-3.5,11.9
		c-2.3,3.2-4.7,5.6-7.2,7.3c3.2,1.9,6,4.4,8.4,7.6C97.7,208,98.9,212.5,98.9,218.5z M73.6,179.3c0-2.2-0.7-4-2.1-5.6
		c-1.3-1.6-3.5-2.3-6.5-2.3H50.2v15.9H65c2.9,0,5.1-0.8,6.5-2.3C72.9,183.3,73.6,181.5,73.6,179.3z M75,217.1c0-2.4-0.7-4.4-2.1-6
		c-1.4-1.6-3.6-2.5-6.7-2.5H50.2v17.1h16.1c3,0,5.2-0.8,6.6-2.5C74.3,221.5,75,219.5,75,217.1z"/>
	<path class="st1" d="M181.4,213c0,5.1-1,9.8-2.9,14.2c-1.9,4.4-4.6,8.1-8,11.2c-3.4,3.1-7.4,5.5-11.9,7.1
		c-4.5,1.6-9.2,2.4-14.3,2.4c-6.6,0-12.8-1.4-18.5-4.3c-5.6-2.9-10.1-7-13.4-12.3c-3.2-5.3-4.9-11.4-4.9-18.3v-63.1h23.9v62.6
		c0,4.4,1.1,7.9,3.4,10.5c2.3,2.5,5.5,3.7,9.5,3.7c2.6,0,4.9-0.6,6.9-1.7c2-1.1,3.5-2.7,4.6-4.9c1.1-2.1,1.6-4.7,1.6-7.7v-62.6h23.9
		V213z"/>
	<path class="st1" d="M258.5,217.4c0,6.4-1.7,11.9-5.1,16.5c-3.3,4.6-7.9,8.1-13.6,10.5c-5.7,2.4-12,3.5-18.9,3.5
		c-8,0-15.1-1-21-2.9c-6-1.9-11.2-5.2-15.9-9.9l15.3-15.3c2.4,2.4,5.6,4.2,9.5,5.3c3.9,1.1,8,1.6,12.2,1.6c9.3,0,13.9-2.9,13.9-8.7
		c0-2.5-0.6-4.4-1.9-5.7c-1.3-1.3-3.4-2.2-6.4-2.6L215,208c-8.6-1.2-15.1-4.1-19.5-8.6c-4.4-4.6-6.7-11.1-6.7-19.5
		c0-5.9,1.4-11.2,4.3-15.8c2.9-4.7,7-8.3,12.3-10.9c5.4-2.6,11.7-3.9,18.9-3.9c7.2,0,13.4,0.9,18.7,2.8c5.4,1.8,10.1,4.8,14.1,8.8
		l-15,15c-2.5-2.5-5.2-4.1-8.1-4.7c-2.9-0.7-6.4-1-10.4-1c-3.8,0-6.7,0.9-8.7,2.7c-2,1.8-3,3.9-3,6.3c0,1.7,0.6,3.2,1.9,4.5
		c1.5,1.5,3.7,2.5,6.7,2.9l11.7,1.6c8.5,1.2,14.9,3.9,19.1,8.1c2.5,2.4,4.4,5.4,5.5,8.9C258,208.5,258.5,212.6,258.5,217.4z"/>
	<rect x="268.1" y="149.9" class="st1" width="23.9" height="97.2"/>
	<polygon class="st1" points="381.4,247.2 360.6,247.2 329.4,198.3 329.4,247.2 305.5,247.2 305.5,149.9 326.4,149.9 357.6,198.8 
		357.6,149.9 381.4,149.9 	"/>
	<polygon class="st1" points="461.1,247.2 395,247.2 395,149.9 461.1,149.9 461.1,171.2 418.9,171.2 418.9,187.5 455,187.5 
		455,208.8 418.9,208.8 418.9,225.9 461.1,225.9 	"/>
	<path class="st1" d="M542.6,217.4c0,6.4-1.7,11.9-5.1,16.5c-3.3,4.6-7.9,8.1-13.6,10.5c-5.7,2.4-12,3.5-18.9,3.5
		c-8,0-15.1-1-21-2.9c-6-1.9-11.2-5.2-15.9-9.9l15.3-15.3c2.4,2.4,5.6,4.2,9.5,5.3c3.9,1.1,8,1.6,12.2,1.6c9.3,0,13.9-2.9,13.9-8.7
		c0-2.5-0.6-4.4-1.9-5.7c-1.3-1.3-3.4-2.2-6.4-2.6L499,208c-8.6-1.2-15.1-4.1-19.5-8.6c-4.4-4.6-6.7-11.1-6.7-19.5
		c0-5.9,1.4-11.2,4.3-15.8c2.9-4.7,7-8.3,12.3-10.9c5.4-2.6,11.7-3.9,18.9-3.9c7.2,0,13.4,0.9,18.7,2.8c5.4,1.8,10.1,4.8,14.1,8.8
		l-15,15c-2.5-2.5-5.2-4.1-8.1-4.7c-2.9-0.7-6.4-1-10.4-1c-3.8,0-6.7,0.9-8.7,2.7c-2,1.8-3,3.9-3,6.3c0,1.7,0.6,3.2,1.9,4.5
		c1.5,1.5,3.7,2.5,6.7,2.9l11.7,1.6c8.5,1.2,14.9,3.9,19.1,8.1c2.5,2.4,4.4,5.4,5.5,8.9C542,208.5,542.6,212.6,542.6,217.4z"/>
	<path class="st1" d="M617.4,217.4c0,6.4-1.7,11.9-5.1,16.5c-3.3,4.6-7.9,8.1-13.6,10.5c-5.7,2.4-12,3.5-18.9,3.5
		c-8,0-15.1-1-21-2.9c-6-1.9-11.2-5.2-15.9-9.9l15.3-15.3c2.4,2.4,5.6,4.2,9.5,5.3c3.9,1.1,8,1.6,12.2,1.6c9.3,0,13.9-2.9,13.9-8.7
		c0-2.5-0.6-4.4-1.9-5.7c-1.3-1.3-3.4-2.2-6.4-2.6l-11.7-1.7c-8.6-1.2-15.1-4.1-19.5-8.6c-4.4-4.6-6.7-11.1-6.7-19.5
		c0-5.9,1.4-11.2,4.3-15.8c2.9-4.7,7-8.3,12.3-10.9c5.4-2.6,11.7-3.9,18.9-3.9c7.2,0,13.4,0.9,18.7,2.8c5.4,1.8,10.1,4.8,14.1,8.8
		l-15,15c-2.5-2.5-5.2-4.1-8.1-4.7c-2.9-0.7-6.4-1-10.4-1c-3.8,0-6.7,0.9-8.7,2.7c-2,1.8-3,3.9-3,6.3c0,1.7,0.6,3.2,1.9,4.5
		c1.5,1.5,3.7,2.5,6.7,2.9l11.7,1.6c8.5,1.2,14.9,3.9,19.1,8.1c2.5,2.4,4.4,5.4,5.5,8.9C616.8,208.5,617.4,212.6,617.4,217.4z"/>
</g>
<g>
	<path class="st0" d="M98.7,49.4v7.9c0,4.7-0.2,8.7-0.7,12.1c-0.4,3.3-1.3,6.6-2.8,9.8c-1.5,3.2-3.7,6.3-6.7,9.3
		C82.2,94.9,73.4,98,62.3,98H26.2V0.8h36.1c11.1,0,19.9,3.2,26.2,9.5c3,3,5.2,6.1,6.7,9.3c1.5,3.2,2.4,6.5,2.8,9.8
		c0.4,3.3,0.7,7.3,0.7,12V49.4z M74.7,49.4c0-8-0.2-13.3-0.5-15.8c-0.3-2.6-1-4.6-2-6.1c-2.4-3.6-6.3-5.5-11.5-5.5H50.2v54.7h10.5
		c5.2,0,9-1.8,11.5-5.5c0.8-1.2,1.3-2.3,1.5-3.4c0.3-1.2,0.6-3.1,0.7-5.9C74.6,59.3,74.7,55.1,74.7,49.4z"/>
	<path class="st0" d="M169.7,88c-3.6,3.6-7.5,6.3-11.7,8.1c-4.1,1.8-9.2,2.7-15.3,2.7c-10.8,0-19.8-3.6-27-10.9
		c-4.3-4.3-7-9.1-8.1-14.5c-1.2-5.4-1.7-12.3-1.7-20.7v-3.3v-3.3c0-8.4,0.6-15.2,1.7-20.7c1.2-5.5,3.9-10.3,8.1-14.6
		c3.6-3.6,7.6-6.4,12-8.1c4.4-1.8,9.4-2.7,15-2.7c6,0,11.2,0.9,15.3,2.7c4.2,1.8,8.1,4.5,11.6,8l-15.9,15.9c-1.8-1.9-3.4-3.2-5-4.1
		c-1.5-0.8-3.5-1.3-6.1-1.3c-4,0-7.1,1.4-9.3,4.1c-0.8,1.1-1.5,2.4-2.1,3.9c-0.5,1.5-0.9,3.7-1.2,6.8c-0.3,3-0.4,7.5-0.4,13.4
		c0,7.9,0.3,13.4,0.9,16.6c0.6,3.2,1.5,5.6,2.8,7.4c2.1,2.8,5.2,4.1,9.3,4.1c2.5,0,4.5-0.4,6-1.3c1.5-0.8,3.2-2.2,5.1-4.1L169.7,88z
		"/>
	<path class="st0" d="M249.7,63.9c0,5.1-1,9.8-2.9,14.2c-1.9,4.4-4.6,8.1-8,11.2c-3.4,3.1-7.4,5.5-11.9,7.1
		c-4.5,1.6-9.2,2.4-14.3,2.4c-6.6,0-12.8-1.4-18.5-4.3c-5.6-2.9-10.1-7-13.4-12.3c-3.2-5.3-4.9-11.4-4.9-18.3V0.8h23.9v62.6
		c0,4.4,1.1,7.9,3.4,10.5c2.3,2.5,5.5,3.7,9.5,3.7c2.6,0,4.9-0.6,6.9-1.7c2-1.1,3.5-2.7,4.6-4.9c1.1-2.1,1.6-4.7,1.6-7.7V0.8h23.9
		V63.9z"/>
</g>
</svg>
